<svg width="54" height="54" viewBox="0 0 54 54" fill="none" xmlns="http://www.w3.org/2000/svg">
<circle cx="27" cy="27" r="27" fill="#2417CE"/>
<path d="M36 26C36 22.6863 33.3137 20 30 20H17.9988C14.6851 20 11.9988 22.6863 11.9988 26V36C11.9988 37.1046 12.8942 38 13.9988 38H30C33.3137 38 36 35.3137 36 32V26Z" fill="#6168ED"/>
<path d="M18 21C18 17.6863 20.6863 15 24 15H36.0012C39.3149 15 42.0012 17.6863 42.0012 21V31C42.0012 32.1046 41.1058 33 40.0012 33H24C20.6863 33 18 30.3137 18 27V21Z" fill="white"/>
<circle cx="24" cy="24" r="2" fill="#2417CE"/>
<ellipse cx="30.0004" cy="24" rx="2.00042" ry="2" fill="#2417CE"/>
<ellipse cx="36.0004" cy="24" rx="2.00042" ry="2" fill="#2417CE"/>
</svg>
