<svg width="54" height="54" viewBox="0 0 54 54" fill="none" xmlns="http://www.w3.org/2000/svg">
<circle cx="27" cy="27" r="27" fill="#FFCC00"/>
<path fill-rule="evenodd" clip-rule="evenodd" d="M12 25.9934C12 18.2649 18.7164 12 27.0011 12C35.2858 12 42 18.2649 42 25.9934C42 33.7218 35.2836 39.9868 26.9989 39.9868C25.9909 39.9868 25.0053 39.8937 24.0513 39.7167L23.9298 39.6623L18.2417 40.9236C17.9896 41.1119 17.6319 40.9304 17.6319 40.615V36.9167L17.6161 36.9099C14.3693 34.4253 12 31.7001 12 25.9934Z" fill="#231F20"/>
<path fill-rule="evenodd" clip-rule="evenodd" d="M25.0586 29.7675L25.0585 29.7761C25.4027 30.4052 26.0693 30.8301 26.832 30.8301C27.5947 30.8301 28.2614 30.4051 28.6055 29.776C28.6055 29.7732 28.6055 29.7703 28.6055 29.7675C28.6055 29.2314 29.0392 28.7969 29.5742 28.7969C30.1092 28.7969 30.543 29.2314 30.543 29.7675C30.543 29.8517 30.5322 29.9335 30.5121 30.0115L30.5147 30.0122C30.0068 31.5633 28.5499 32.6834 26.832 32.6834C25.1422 32.6834 23.7051 31.5998 23.1751 30.0882L23.1752 30.0882C23.1402 29.9878 23.1211 29.8799 23.1211 29.7675C23.1211 29.2314 23.5548 28.7969 24.0898 28.7969C24.6249 28.7969 25.0586 29.2314 25.0586 29.7675Z" fill="#FFCC00"/>
<ellipse cx="21.6719" cy="24.4265" rx="2.42185" ry="2.42653" fill="#FFCC00"/>
<ellipse cx="32.3281" cy="24.4265" rx="2.42185" ry="2.42653" fill="#FFCC00"/>
</svg>
