<svg width="130" height="48" viewBox="0 0 130 48" fill="none" xmlns="http://www.w3.org/2000/svg">
<g clip-path="url(#clip0_7881_17291)">
<path d="M4.27836 23.4692C4.61499 22.8324 5.46628 22.1156 6.39202 22.0452C7.97807 21.93 8.58012 23.8084 12.0274 27.0212C13.8691 28.7364 16.2514 30.5828 16.2547 30.5796C14.4647 28.7908 3.37528 18.154 5.68639 14.2244C6.15249 13.434 7.00378 12.8612 7.80005 12.8004C9.83278 12.65 11.0531 15.6996 14.1378 19.2004C15.2901 20.5092 17.1027 22.3332 19.7731 24.1764C17.3552 21.7604 6.60889 10.8036 9.20807 6.39723C9.7292 5.51403 10.9107 4.68203 12.0824 4.71083C14.4582 4.77163 15.5458 8.34923 18.7859 12.7972C20.1324 14.6468 22.0357 16.8964 24.7028 19.1972C23.0294 17.3316 12.6747 5.64523 15.549 1.41803C16.0993 0.608429 17.2549 -0.0187707 18.3619 0.000429255C20.8672 0.0452293 21.6958 3.37963 25.1204 7.82123C29.8818 13.9972 33.6333 14.506 33.4876 17.7764C33.3743 20.3876 30.9402 21.8148 31.7397 24.1764C32.0828 25.1876 32.9309 26.0068 33.8534 26.3108C35.9606 27.0052 38.4529 25.2036 39.4887 23.466C39.615 23.2516 39.9257 22.5124 40.5504 21.0372C40.6313 20.8484 40.7705 20.506 41.023 19.8948C41.3985 18.9828 41.5635 18.5796 41.6024 18.4868C42.5152 16.282 43.7193 14.778 43.7193 14.778C44.4508 13.8628 45.2989 12.8068 46.7231 12.218C48.7429 11.386 51.6107 11.626 52.3519 13.018C52.9605 14.1668 51.9732 15.7956 51.5816 16.4644C46.6745 24.8964 49.1701 31.93 43.0072 38.3972C39.4467 42.1316 33.876 44.7844 28.218 44.7972C13.4839 44.8292 2.02552 27.69 4.27512 23.4628L4.27836 23.4692Z" fill="#131B4D"/>
<path d="M86.8001 22.4341C86.8001 22.7797 86.9717 30.8661 101.906 30.8661C102.81 30.8661 103.541 30.1461 103.541 29.2597C103.541 28.3733 102.81 27.6533 101.906 27.6533C94.5491 27.6533 91.7622 25.5829 90.707 24.0405H101.605C102.509 24.0405 103.24 23.3205 103.24 22.4341C103.24 19.6821 101.897 15.9893 95.504 14.0405C92.0211 12.9781 88.5933 12.9333 88.4509 12.9301C87.5478 12.9109 86.8131 13.6309 86.8001 14.5173C86.7904 15.4037 87.5122 16.1301 88.4153 16.1429C88.4477 16.1429 91.5647 16.1909 94.5944 17.1253C97.3231 17.9669 99.0224 19.2085 99.673 20.8277H88.4315C87.5284 20.8277 86.7969 21.5477 86.7969 22.4341H86.8001Z" fill="#131B4D"/>
<path d="M126.997 35.06C126.997 34.1736 126.265 33.4536 125.362 33.4536H118.966V31.8408C118.966 30.9544 118.234 30.2344 117.331 30.2344C116.428 30.2344 115.697 30.9544 115.697 31.8408V33.4536H74.1648V33.236C74.1648 32.3496 73.4333 31.6296 72.5302 31.6296C71.6271 31.6296 70.8956 32.3496 70.8956 33.236V33.4536H63.8846C62.9815 33.4536 62.25 34.1736 62.25 35.06C62.25 35.9464 62.9815 36.6664 63.8846 36.6664H86.9115C87.0701 38.18 87.7207 41.3832 90.3717 44.0232C93.0194 46.66 96.8777 47.9976 101.833 47.9976C102.736 47.9976 103.468 47.2776 103.468 46.3912C103.468 45.5048 102.736 44.7848 101.833 44.7848C97.8035 44.7848 94.7414 43.78 92.7281 41.796C90.9284 40.0232 90.3749 37.8344 90.2034 36.6632H109.071C109.23 38.1768 109.88 41.38 112.531 44.02C115.179 46.6568 119.037 47.9944 123.993 47.9944C124.896 47.9944 125.627 47.2744 125.627 46.388C125.627 45.5016 124.896 44.7816 123.993 44.7816C119.963 44.7816 116.901 43.7768 114.888 41.7928C113.088 40.02 112.534 37.8312 112.363 36.66H125.352C126.255 36.66 126.987 35.94 126.987 35.0536L126.997 35.06Z" fill="#131B4D"/>
<path d="M72.5377 30.8641C77.6034 30.8641 81.7239 26.8129 81.7239 21.8305C81.7239 16.8481 77.6034 12.7969 72.5377 12.7969C67.4721 12.7969 63.3516 16.8481 63.3516 21.8305C63.3516 26.8129 67.4721 30.8641 72.5377 30.8641ZM72.5377 16.0097C75.8037 16.0097 78.4579 18.6209 78.4579 21.8305C78.4579 25.0401 75.8005 27.6513 72.5377 27.6513C69.275 27.6513 66.6175 25.0401 66.6175 21.8305C66.6175 18.6209 69.275 16.0097 72.5377 16.0097Z" fill="#131B4D"/>
<path d="M110.394 30.8673C111.297 30.8673 112.028 30.1473 112.028 29.2609V21.2289C112.028 18.3521 114.411 16.0097 117.337 16.0097C120.263 16.0097 122.645 18.3521 122.645 21.2289V29.2609C122.645 30.1473 123.377 30.8673 124.28 30.8673C125.183 30.8673 125.914 30.1473 125.914 29.2609V21.2289C125.914 16.5793 122.069 12.7969 117.34 12.7969C112.611 12.7969 108.766 16.5793 108.766 21.2289V29.2609C108.766 30.1473 109.497 30.8673 110.4 30.8673H110.394Z" fill="#131B4D"/>
<path d="M106.28 0.640625C103.81 0.640625 101.797 2.65022 101.797 5.12063C101.797 7.59102 103.807 9.60063 106.277 9.60063C107.423 9.60063 108.468 9.16543 109.264 8.45502V9.60063H110.76V5.12063C110.76 2.65022 108.75 0.640625 106.28 0.640625ZM106.28 8.10943C104.632 8.10943 103.292 6.76862 103.292 5.12063C103.292 3.47263 104.636 2.13182 106.28 2.13182C107.924 2.13182 109.268 3.47263 109.268 5.12063C109.268 6.76862 107.924 8.10943 106.28 8.10943Z" fill="#131B4D"/>
<path d="M117.157 0.640625H116.209C113.694 0.640625 111.93 2.64382 111.93 5.50782V9.60063H113.425V5.50782C113.425 3.95262 114.153 2.13503 116.212 2.13503H117.16C117.575 2.13503 117.908 1.80222 117.908 1.38622C117.908 0.970225 117.572 0.640625 117.157 0.640625Z" fill="#131B4D"/>
<path d="M101.449 1.38943C101.449 0.976625 101.115 0.643825 100.701 0.643825H98.6228C98.571 0.643825 98.516 0.640625 98.4642 0.640625C95.9945 0.640625 93.9844 2.65022 93.9844 5.12063C93.9844 7.59102 95.9459 9.54303 98.3703 9.59742H98.4415C98.4415 9.59742 98.4577 9.60063 98.4706 9.60063H100.707C101.122 9.60063 101.455 9.27102 101.455 8.85503C101.455 8.43902 101.122 8.10943 100.707 8.10943H98.4642C96.8166 8.10943 95.4766 6.76862 95.4766 5.12063C95.4766 3.47263 96.8198 2.13182 98.4609 2.13182H100.701C101.115 2.13182 101.449 1.80222 101.449 1.38622V1.38943Z" fill="#131B4D"/>
<path d="M126.999 5.10924C126.992 2.69964 125.069 0.741238 122.677 0.654837C122.626 0.648437 122.577 0.648438 122.525 0.648438H122.519C121.8 0.648438 121.121 0.824438 120.522 1.12524C119.311 1.73324 118.408 2.86604 118.13 4.22604C118.071 4.52044 118.039 4.81804 118.039 5.12844C118.039 7.53484 119.942 9.49324 122.325 9.59884V9.60524H124.658C125.073 9.60524 125.406 9.27564 125.406 8.85964C125.406 8.44364 125.073 8.11404 124.658 8.11404H122.519C121.13 8.11404 119.962 7.16044 119.632 5.87404H126.254C126.668 5.87404 127.002 5.54444 127.002 5.12844V5.11244H126.999V5.10924ZM125.406 4.37644H119.625C119.959 3.09004 121.127 2.13324 122.512 2.13324C123.898 2.13324 125.066 3.09004 125.396 4.37644H125.4H125.406Z" fill="#131B4D"/>
</g>
<defs>
<clipPath id="clip0_7881_17291">
<rect width="123" height="48" fill="white" transform="translate(4)"/>
</clipPath>
</defs>
</svg>
